<svg width="38" height="38" viewBox="0 0 38 38" fill="none" xmlns="http://www.w3.org/2000/svg">
<g clip-path="url(#clip0_2_14)">
<g filter="url(#filter0_dd_2_14)">
<path d="M26.9 2H10.9C6.53695 2 3 5.53695 3 9.9V25.9C3 30.2631 6.53695 33.8 10.9 33.8H26.9C31.2631 33.8 34.8 30.2631 34.8 25.9V9.9C34.8 5.53695 31.2631 2 26.9 2Z" fill="white"/>
<path d="M26.9 2H10.9C6.53695 2 3 5.53695 3 9.9V25.9C3 30.2631 6.53695 33.8 10.9 33.8H26.9C31.2631 33.8 34.8 30.2631 34.8 25.9V9.9C34.8 5.53695 31.2631 2 26.9 2Z" fill="url(#paint0_linear_2_14)"/>
<path d="M26.9 2H10.9C6.53695 2 3 5.53695 3 9.9V25.9C3 30.2631 6.53695 33.8 10.9 33.8H26.9C31.2631 33.8 34.8 30.2631 34.8 25.9V9.9C34.8 5.53695 31.2631 2 26.9 2Z" stroke="#D0D5DD" stroke-width="0.2"/>
<path d="M18.2546 13.0827C22.6105 11.3503 27.3742 12.7184 29.5373 14.8132C30.006 15.2671 30.4041 15.7275 30.745 16.1851C30.9394 15.1107 30.9552 14.0405 30.7681 13.0055C30.0847 9.22646 26.5195 7.08558 23.3233 8.19146C20.1415 9.29237 18.9005 11.4321 18.9005 11.4321C18.9005 11.4321 17.6595 9.29237 14.4777 8.19146C11.2812 7.08558 7.71606 9.22669 7.03283 13.0055C6.52845 15.7944 7.48358 18.8391 9.51035 21.5298C9.93722 21.6732 10.3847 21.7809 10.8586 21.843C13.6978 22.2163 14.7184 21.457 15.9178 20.9486C16.7142 20.6112 17.3134 20.9942 17.2843 21.2626C17.2392 21.6786 15.6693 22.3895 16.006 22.5388C17.3351 23.1284 18.9718 23.1334 20.2053 22.08C21.738 20.7712 22.3114 21.6658 22.3114 21.6658C22.3114 21.6658 21.5502 23.6076 19.2581 24.5717C17.3457 25.3761 15.3419 25.5743 13.5107 25.3683C15.09 26.4846 16.9035 27.4204 18.9005 28.0882C24.6099 26.1784 28.8276 22.0871 30.3145 17.8096C29.3072 16.8157 28.0716 16.1995 26.5988 15.9763C23.7674 15.547 22.7322 16.2862 21.5228 16.7708C20.7198 17.0926 20.1285 16.6978 20.163 16.4299C20.2161 16.0148 21.7999 15.3351 21.4661 15.179C20.149 14.5633 18.5125 14.526 17.2585 15.5548C15.7003 16.8332 15.1446 15.9274 15.1446 15.9274C15.1446 15.9274 15.9438 14.0015 18.2546 13.0827ZM17.1709 18.4051H18.2709V17.3052H19.5296V18.4051H20.6296V19.6639H19.5296V20.7638H18.2709V19.6639H17.1709V18.4051Z" fill="#24AE7C"/>
<path d="M17.1709 18.4052H18.2709V17.3052H19.5296V18.4052H20.6295V19.6639H19.5378C21.1597 20.4834 24.1383 21.7027 27.7177 22.2451C28.8956 20.8517 29.7813 19.3428 30.3143 17.8096C29.3069 16.8157 28.0713 16.1996 26.5986 15.9763C23.7672 15.547 22.7319 16.2863 21.5226 16.7708C20.7196 17.0926 20.1282 16.6978 20.1627 16.4299C20.2159 16.0148 21.7997 15.3351 21.4659 15.179C20.1488 14.5633 18.5123 14.526 17.2583 15.5548C15.7 16.8332 15.1443 15.9274 15.1443 15.9274C15.1443 15.9274 15.9438 14.0013 18.2543 13.0823C22.6102 11.3499 27.3739 12.718 29.537 14.8128C30.0057 15.2666 30.4038 15.7271 30.7447 16.1847C30.9392 15.1102 30.955 14.04 30.7679 13.005C30.0844 9.226 26.5192 7.08512 23.323 8.191C20.1412 9.29191 18.9002 11.4316 18.9002 11.4316C18.9002 11.4316 17.6592 9.29191 14.4774 8.191C12.6519 7.55927 10.7067 7.9883 9.24622 9.17521C9.93233 10.6442 10.736 12.0168 13.0254 14.7773C14.8868 17.0222 17.1709 18.4052 17.1709 18.4052Z" fill="url(#paint1_linear_2_14)"/>
<path opacity="0.31" d="M27.177 9.54942C24.1712 8.03932 21.069 10.389 20.0851 11.6298C21.782 11.2724 23.2668 11.089 25.1457 11.4838C27.9252 12.0678 28.9654 13.0714 30.2064 14.5541C29.9871 11.8068 28.2519 10.0895 27.177 9.54942Z" fill="url(#paint2_linear_2_14)"/>
</g>
</g>
<defs>
<filter id="filter0_dd_2_14" x="-0.0999756" y="-0.0999985" width="38" height="38" filterUnits="userSpaceOnUse" color-interpolation-filters="sRGB">
<feFlood flood-opacity="0" result="BackgroundImageFix"/>
<feColorMatrix in="SourceAlpha" type="matrix" values="0 0 0 0 0 0 0 0 0 0 0 0 0 0 0 0 0 0 127 0" result="hardAlpha"/>
<feOffset dy="1"/>
<feGaussianBlur stdDeviation="1"/>
<feColorMatrix type="matrix" values="0 0 0 0 0.0627451 0 0 0 0 0.0941176 0 0 0 0 0.156863 0 0 0 0.06 0"/>
<feBlend mode="normal" in2="BackgroundImageFix" result="effect1_dropShadow_2_14"/>
<feColorMatrix in="SourceAlpha" type="matrix" values="0 0 0 0 0 0 0 0 0 0 0 0 0 0 0 0 0 0 127 0" result="hardAlpha"/>
<feOffset dy="1"/>
<feGaussianBlur stdDeviation="1.5"/>
<feColorMatrix type="matrix" values="0 0 0 0 0.0627451 0 0 0 0 0.0941176 0 0 0 0 0.156863 0 0 0 0.1 0"/>
<feBlend mode="normal" in2="effect1_dropShadow_2_14" result="effect2_dropShadow_2_14"/>
<feBlend mode="normal" in="SourceGraphic" in2="effect2_dropShadow_2_14" result="shape"/>
</filter>
<linearGradient id="paint0_linear_2_14" x1="18.9" y1="1.9" x2="18.9" y2="33.9" gradientUnits="userSpaceOnUse">
<stop stop-color="white"/>
<stop offset="1" stop-color="#D0D5DD"/>
</linearGradient>
<linearGradient id="paint1_linear_2_14" x1="10.0388" y1="24.1537" x2="27.7274" y2="6.46509" gradientUnits="userSpaceOnUse">
<stop offset="0.535" stop-color="#24AE7C"/>
<stop offset="1" stop-color="#79DD83"/>
</linearGradient>
<linearGradient id="paint2_linear_2_14" x1="24.7608" y1="13.4072" x2="28.4288" y2="10.0131" gradientUnits="userSpaceOnUse">
<stop stop-color="#00A482"/>
<stop offset="1" stop-color="#79DD83"/>
</linearGradient>
<clipPath id="clip0_2_14">
<rect width="38" height="38" fill="white"/>
</clipPath>
</defs>
</svg>
